<?xml version="1.0" encoding="UTF-8"?> <svg xmlns="http://www.w3.org/2000/svg" width="611" height="168" viewBox="0 0 611 168" fill="none"><path d="M589.693 114.841L477 114.841L532.229 57.3774L589.693 114.841Z" fill="#FF4081" fill-opacity="0.3"></path><mask id="path-2-inside-1_2025:82245" fill="white"><path d="M566 114.5C566 111.545 566.582 108.619 567.713 105.89C568.843 103.16 570.501 100.679 572.59 98.5901L588.5 114.5L566 114.5Z"></path></mask><path d="M566 114.5C566 111.545 566.582 108.619 567.713 105.89C568.843 103.16 570.501 100.679 572.59 98.5901L588.5 114.5L566 114.5Z" fill="#FF4081" stroke="black" stroke-width="4" mask="url(#path-2-inside-1_2025:82245)"></path><mask id="path-3-inside-2_2025:82245" fill="white"><path d="M500 114.5C500 111.545 499.418 108.619 498.287 105.89C497.157 103.16 495.499 100.679 493.41 98.5901L477.5 114.5L500 114.5Z"></path></mask><path d="M500 114.5C500 111.545 499.418 108.619 498.287 105.89C497.157 103.16 495.499 100.679 493.41 98.5901L477.5 114.5L500 114.5Z" fill="#FF4081" stroke="black" stroke-width="4" mask="url(#path-3-inside-2_2025:82245)"></path><rect x="532.639" y="60.1427" width="13" height="13" transform="rotate(45.2079 532.639 60.1427)" stroke="black" stroke-width="2"></rect><line x1="1" y1="-1" x2="11" y2="-1" transform="matrix(-0.866025 0.5 0.5 0.866025 567.391 87.7285)" stroke="black" stroke-width="2" stroke-linecap="round"></line><line x1="498.366" y1="87.3625" x2="507.026" y2="92.3625" stroke="black" stroke-width="2" stroke-linecap="round"></line><path d="M532.25 59.52L586.072 113.341L480.522 113.341L532.25 59.52Z" stroke="black" stroke-width="3"></path><path d="M500.945 140H498.845L497.03 136.625C496.86 136.305 496.65 136.08 496.4 135.95C496.15 135.82 495.835 135.755 495.455 135.755H493.985V140H492.08V129.425H496.76C497.96 129.425 498.87 129.695 499.49 130.235C500.12 130.765 500.435 131.535 500.435 132.545C500.435 133.355 500.205 134.025 499.745 134.555C499.295 135.075 498.655 135.415 497.825 135.575C498.385 135.725 498.835 136.12 499.175 136.76L500.945 140ZM496.49 134.27C497.22 134.27 497.755 134.135 498.095 133.865C498.435 133.585 498.605 133.16 498.605 132.59C498.605 132.01 498.435 131.59 498.095 131.33C497.755 131.06 497.22 130.925 496.49 130.925H493.97V134.27H496.49ZM502.494 140V132.665H504.369V140H502.494ZM502.389 129.26H504.459V131.105H502.389V129.26ZM513.593 132.665V139.325C513.593 140.475 513.273 141.345 512.633 141.935C512.003 142.525 511.068 142.82 509.828 142.82C509.188 142.82 508.573 142.735 507.983 142.565C507.393 142.405 506.878 142.175 506.438 141.875L506.963 140.555C507.873 141.105 508.813 141.38 509.783 141.38C511.083 141.38 511.733 140.74 511.733 139.46V138.5C511.513 138.91 511.193 139.23 510.773 139.46C510.353 139.68 509.873 139.79 509.333 139.79C508.693 139.79 508.123 139.64 507.623 139.34C507.133 139.03 506.748 138.6 506.468 138.05C506.188 137.5 506.048 136.865 506.048 136.145C506.048 135.425 506.183 134.79 506.453 134.24C506.733 133.68 507.123 133.25 507.623 132.95C508.123 132.64 508.693 132.485 509.333 132.485C509.873 132.485 510.353 132.6 510.773 132.83C511.193 133.05 511.513 133.365 511.733 133.775V132.665H513.593ZM509.828 138.335C510.428 138.335 510.893 138.14 511.223 137.75C511.563 137.36 511.733 136.825 511.733 136.145C511.733 135.455 511.563 134.915 511.223 134.525C510.893 134.135 510.428 133.94 509.828 133.94C509.238 133.94 508.773 134.135 508.433 134.525C508.093 134.915 507.923 135.455 507.923 136.145C507.923 136.815 508.093 137.35 508.433 137.75C508.773 138.14 509.238 138.335 509.828 138.335ZM519.945 132.485C520.825 132.485 521.48 132.735 521.91 133.235C522.34 133.735 522.555 134.49 522.555 135.5V140H520.68V135.605C520.68 135.035 520.57 134.62 520.35 134.36C520.14 134.1 519.805 133.97 519.345 133.97C518.805 133.97 518.37 134.14 518.04 134.48C517.72 134.82 517.56 135.275 517.56 135.845V140H515.685V129.425H517.56V133.685C517.81 133.295 518.14 133 518.55 132.8C518.97 132.59 519.435 132.485 519.945 132.485ZM528.359 138.71C528.579 138.71 528.809 138.695 529.049 138.665L528.959 140.06C528.659 140.09 528.384 140.105 528.134 140.105C527.104 140.105 526.344 139.87 525.854 139.4C525.364 138.92 525.119 138.21 525.119 137.27V134.075H523.709V132.665H525.119V130.475H526.994V132.665H528.929V134.075H526.994V137.24C526.994 138.22 527.449 138.71 528.359 138.71ZM542.769 140L541.704 137.525H536.559L535.494 140H533.544L538.329 129.425H539.904L544.689 140H542.769ZM537.189 136.025H541.059L539.124 131.525L537.189 136.025ZM550.062 132.485C550.942 132.485 551.597 132.735 552.027 133.235C552.457 133.735 552.672 134.49 552.672 135.5V140H550.797V135.605C550.797 135.035 550.687 134.62 550.467 134.36C550.257 134.1 549.922 133.97 549.462 133.97C548.922 133.97 548.487 134.14 548.157 134.48C547.837 134.82 547.677 135.275 547.677 135.845V140H545.802V132.665H547.632V133.76C547.882 133.35 548.217 133.035 548.637 132.815C549.057 132.595 549.532 132.485 550.062 132.485ZM561.866 132.665V139.325C561.866 140.475 561.546 141.345 560.906 141.935C560.276 142.525 559.341 142.82 558.101 142.82C557.461 142.82 556.846 142.735 556.256 142.565C555.666 142.405 555.151 142.175 554.711 141.875L555.236 140.555C556.146 141.105 557.086 141.38 558.056 141.38C559.356 141.38 560.006 140.74 560.006 139.46V138.5C559.786 138.91 559.466 139.23 559.046 139.46C558.626 139.68 558.146 139.79 557.606 139.79C556.966 139.79 556.396 139.64 555.896 139.34C555.406 139.03 555.021 138.6 554.741 138.05C554.461 137.5 554.321 136.865 554.321 136.145C554.321 135.425 554.456 134.79 554.726 134.24C555.006 133.68 555.396 133.25 555.896 132.95C556.396 132.64 556.966 132.485 557.606 132.485C558.146 132.485 558.626 132.6 559.046 132.83C559.466 133.05 559.786 133.365 560.006 133.775V132.665H561.866ZM558.101 138.335C558.701 138.335 559.166 138.14 559.496 137.75C559.836 137.36 560.006 136.825 560.006 136.145C560.006 135.455 559.836 134.915 559.496 134.525C559.166 134.135 558.701 133.94 558.101 133.94C557.511 133.94 557.046 134.135 556.706 134.525C556.366 134.915 556.196 135.455 556.196 136.145C556.196 136.815 556.366 137.35 556.706 137.75C557.046 138.14 557.511 138.335 558.101 138.335ZM563.958 140V129.425H565.833V140H563.958ZM574.352 136.67H569.357C569.417 137.35 569.622 137.855 569.972 138.185C570.322 138.515 570.822 138.68 571.472 138.68C572.282 138.68 573.022 138.42 573.692 137.9L574.232 139.19C573.892 139.47 573.462 139.695 572.942 139.865C572.432 140.035 571.917 140.12 571.397 140.12C570.197 140.12 569.247 139.78 568.547 139.1C567.857 138.42 567.512 137.49 567.512 136.31C567.512 135.56 567.662 134.895 567.962 134.315C568.262 133.735 568.682 133.285 569.222 132.965C569.772 132.645 570.392 132.485 571.082 132.485C572.092 132.485 572.887 132.81 573.467 133.46C574.057 134.11 574.352 135.005 574.352 136.145V136.67ZM571.127 133.805C570.627 133.805 570.222 133.965 569.912 134.285C569.612 134.605 569.427 135.065 569.357 135.665H572.747C572.727 135.055 572.577 134.595 572.297 134.285C572.017 133.965 571.627 133.805 571.127 133.805ZM472.294 159V148.425H474.229V159H472.294ZM479.197 159.12C478.547 159.12 477.947 159.04 477.397 158.88C476.857 158.72 476.397 158.49 476.017 158.19L476.542 156.885C477.322 157.455 478.217 157.74 479.227 157.74C479.657 157.74 479.982 157.67 480.202 157.53C480.432 157.39 480.547 157.19 480.547 156.93C480.547 156.71 480.467 156.54 480.307 156.42C480.157 156.3 479.882 156.19 479.482 156.09L478.282 155.82C477.602 155.67 477.097 155.425 476.767 155.085C476.437 154.745 476.272 154.305 476.272 153.765C476.272 153.315 476.397 152.92 476.647 152.58C476.907 152.23 477.262 151.96 477.712 151.77C478.172 151.58 478.702 151.485 479.302 151.485C479.822 151.485 480.322 151.565 480.802 151.725C481.292 151.885 481.722 152.11 482.092 152.4L481.567 153.675C480.807 153.125 480.047 152.85 479.287 152.85C478.877 152.85 478.557 152.925 478.327 153.075C478.097 153.225 477.982 153.435 477.982 153.705C477.982 153.905 478.052 154.07 478.192 154.2C478.342 154.33 478.577 154.43 478.897 154.5L480.142 154.785C480.872 154.945 481.407 155.2 481.747 155.55C482.087 155.89 482.257 156.34 482.257 156.9C482.257 157.58 481.982 158.12 481.432 158.52C480.882 158.92 480.137 159.12 479.197 159.12ZM487.273 159.12C486.523 159.12 485.863 158.965 485.293 158.655C484.733 158.345 484.298 157.9 483.988 157.32C483.678 156.74 483.523 156.065 483.523 155.295C483.523 154.525 483.678 153.855 483.988 153.285C484.298 152.705 484.733 152.26 485.293 151.95C485.863 151.64 486.523 151.485 487.273 151.485C488.023 151.485 488.678 151.64 489.238 151.95C489.808 152.26 490.243 152.705 490.543 153.285C490.853 153.855 491.008 154.525 491.008 155.295C491.008 156.065 490.853 156.74 490.543 157.32C490.243 157.9 489.808 158.345 489.238 158.655C488.678 158.965 488.023 159.12 487.273 159.12ZM487.258 157.665C487.868 157.665 488.333 157.465 488.653 157.065C488.973 156.665 489.133 156.075 489.133 155.295C489.133 154.525 488.973 153.94 488.653 153.54C488.333 153.13 487.873 152.925 487.273 152.925C486.673 152.925 486.208 153.13 485.878 153.54C485.558 153.94 485.398 154.525 485.398 155.295C485.398 156.075 485.558 156.665 485.878 157.065C486.198 157.465 486.658 157.665 487.258 157.665ZM495.406 159.12C494.756 159.12 494.156 159.04 493.606 158.88C493.066 158.72 492.606 158.49 492.226 158.19L492.751 156.885C493.531 157.455 494.426 157.74 495.436 157.74C495.866 157.74 496.191 157.67 496.411 157.53C496.641 157.39 496.756 157.19 496.756 156.93C496.756 156.71 496.676 156.54 496.516 156.42C496.366 156.3 496.091 156.19 495.691 156.09L494.491 155.82C493.811 155.67 493.306 155.425 492.976 155.085C492.646 154.745 492.481 154.305 492.481 153.765C492.481 153.315 492.606 152.92 492.856 152.58C493.116 152.23 493.471 151.96 493.921 151.77C494.381 151.58 494.911 151.485 495.511 151.485C496.031 151.485 496.531 151.565 497.011 151.725C497.501 151.885 497.931 152.11 498.301 152.4L497.776 153.675C497.016 153.125 496.256 152.85 495.496 152.85C495.086 152.85 494.766 152.925 494.536 153.075C494.306 153.225 494.191 153.435 494.191 153.705C494.191 153.905 494.261 154.07 494.401 154.2C494.551 154.33 494.786 154.43 495.106 154.5L496.351 154.785C497.081 154.945 497.616 155.2 497.956 155.55C498.296 155.89 498.466 156.34 498.466 156.9C498.466 157.58 498.191 158.12 497.641 158.52C497.091 158.92 496.346 159.12 495.406 159.12ZM503.481 159.12C502.711 159.12 502.041 158.965 501.471 158.655C500.911 158.345 500.481 157.905 500.181 157.335C499.881 156.765 499.731 156.1 499.731 155.34C499.731 154.58 499.886 153.91 500.196 153.33C500.516 152.74 500.966 152.285 501.546 151.965C502.126 151.645 502.796 151.485 503.556 151.485C504.076 151.485 504.581 151.57 505.071 151.74C505.571 151.9 505.971 152.12 506.271 152.4L505.731 153.72C505.421 153.47 505.091 153.28 504.741 153.15C504.401 153.02 504.061 152.955 503.721 152.955C503.071 152.955 502.566 153.16 502.206 153.57C501.846 153.97 501.666 154.55 501.666 155.31C501.666 156.06 501.846 156.64 502.206 157.05C502.566 157.45 503.071 157.65 503.721 157.65C504.061 157.65 504.401 157.585 504.741 157.455C505.091 157.325 505.421 157.135 505.731 156.885L506.271 158.19C505.951 158.48 505.541 158.71 505.041 158.88C504.541 159.04 504.021 159.12 503.481 159.12ZM514.045 155.67H509.05C509.11 156.35 509.315 156.855 509.665 157.185C510.015 157.515 510.515 157.68 511.165 157.68C511.975 157.68 512.715 157.42 513.385 156.9L513.925 158.19C513.585 158.47 513.155 158.695 512.635 158.865C512.125 159.035 511.61 159.12 511.09 159.12C509.89 159.12 508.94 158.78 508.24 158.1C507.55 157.42 507.205 156.49 507.205 155.31C507.205 154.56 507.355 153.895 507.655 153.315C507.955 152.735 508.375 152.285 508.915 151.965C509.465 151.645 510.085 151.485 510.775 151.485C511.785 151.485 512.58 151.81 513.16 152.46C513.75 153.11 514.045 154.005 514.045 155.145V155.67ZM510.82 152.805C510.32 152.805 509.915 152.965 509.605 153.285C509.305 153.605 509.12 154.065 509.05 154.665H512.44C512.42 154.055 512.27 153.595 511.99 153.285C511.71 152.965 511.32 152.805 510.82 152.805ZM515.729 159V148.425H517.604V159H515.729ZM526.122 155.67H521.127C521.187 156.35 521.392 156.855 521.742 157.185C522.092 157.515 522.592 157.68 523.242 157.68C524.052 157.68 524.792 157.42 525.462 156.9L526.002 158.19C525.662 158.47 525.232 158.695 524.712 158.865C524.202 159.035 523.687 159.12 523.167 159.12C521.967 159.12 521.017 158.78 520.317 158.1C519.627 157.42 519.282 156.49 519.282 155.31C519.282 154.56 519.432 153.895 519.732 153.315C520.032 152.735 520.452 152.285 520.992 151.965C521.542 151.645 522.162 151.485 522.852 151.485C523.862 151.485 524.657 151.81 525.237 152.46C525.827 153.11 526.122 154.005 526.122 155.145V155.67ZM522.897 152.805C522.397 152.805 521.992 152.965 521.682 153.285C521.382 153.605 521.197 154.065 521.127 154.665H524.517C524.497 154.055 524.347 153.595 524.067 153.285C523.787 152.965 523.397 152.805 522.897 152.805ZM530.506 159.12C529.856 159.12 529.256 159.04 528.706 158.88C528.166 158.72 527.706 158.49 527.326 158.19L527.851 156.885C528.631 157.455 529.526 157.74 530.536 157.74C530.966 157.74 531.291 157.67 531.511 157.53C531.741 157.39 531.856 157.19 531.856 156.93C531.856 156.71 531.776 156.54 531.616 156.42C531.466 156.3 531.191 156.19 530.791 156.09L529.591 155.82C528.911 155.67 528.406 155.425 528.076 155.085C527.746 154.745 527.581 154.305 527.581 153.765C527.581 153.315 527.706 152.92 527.956 152.58C528.216 152.23 528.571 151.96 529.021 151.77C529.481 151.58 530.011 151.485 530.611 151.485C531.131 151.485 531.631 151.565 532.111 151.725C532.601 151.885 533.031 152.11 533.401 152.4L532.876 153.675C532.116 153.125 531.356 152.85 530.596 152.85C530.186 152.85 529.866 152.925 529.636 153.075C529.406 153.225 529.291 153.435 529.291 153.705C529.291 153.905 529.361 154.07 529.501 154.2C529.651 154.33 529.886 154.43 530.206 154.5L531.451 154.785C532.181 154.945 532.716 155.2 533.056 155.55C533.396 155.89 533.566 156.34 533.566 156.9C533.566 157.58 533.291 158.12 532.741 158.52C532.191 158.92 531.446 159.12 530.506 159.12ZM542.114 159V150.015H538.664V148.425H547.499V150.015H544.049V159H542.114ZM552.466 153.045L551.371 153.15C550.131 153.28 549.511 153.91 549.511 155.04V159H547.636V151.665H549.421V152.955C549.801 152.075 550.586 151.595 551.776 151.515L552.346 151.47L552.466 153.045ZM553.528 159V151.665H555.403V159H553.528ZM553.423 148.26H555.493V150.105H553.423V148.26ZM560.637 151.485C561.667 151.485 562.432 151.735 562.932 152.235C563.432 152.735 563.682 153.505 563.682 154.545V159H561.897V157.875C561.727 158.265 561.457 158.57 561.087 158.79C560.727 159.01 560.307 159.12 559.827 159.12C559.337 159.12 558.892 159.02 558.492 158.82C558.092 158.62 557.777 158.345 557.547 157.995C557.317 157.645 557.202 157.255 557.202 156.825C557.202 156.285 557.337 155.86 557.607 155.55C557.887 155.24 558.337 155.015 558.957 154.875C559.577 154.735 560.432 154.665 561.522 154.665H561.897V154.32C561.897 153.82 561.787 153.46 561.567 153.24C561.357 153.02 561.002 152.91 560.502 152.91C560.112 152.91 559.702 152.98 559.272 153.12C558.852 153.25 558.437 153.435 558.027 153.675L557.502 152.385C557.912 152.125 558.407 151.91 558.987 151.74C559.567 151.57 560.117 151.485 560.637 151.485ZM560.202 157.77C560.702 157.77 561.107 157.605 561.417 157.275C561.737 156.935 561.897 156.5 561.897 155.97V155.655H561.627C560.957 155.655 560.437 155.685 560.067 155.745C559.697 155.805 559.432 155.91 559.272 156.06C559.112 156.21 559.032 156.415 559.032 156.675C559.032 156.995 559.142 157.26 559.362 157.47C559.582 157.67 559.862 157.77 560.202 157.77ZM569.997 151.485C570.877 151.485 571.532 151.735 571.962 152.235C572.392 152.735 572.607 153.49 572.607 154.5V159H570.732V154.605C570.732 154.035 570.622 153.62 570.402 153.36C570.192 153.1 569.857 152.97 569.397 152.97C568.857 152.97 568.422 153.14 568.092 153.48C567.772 153.82 567.612 154.275 567.612 154.845V159H565.737V151.665H567.567V152.76C567.817 152.35 568.152 152.035 568.572 151.815C568.992 151.595 569.467 151.485 569.997 151.485ZM581.802 151.665V158.325C581.802 159.475 581.482 160.345 580.842 160.935C580.212 161.525 579.277 161.82 578.037 161.82C577.397 161.82 576.782 161.735 576.192 161.565C575.602 161.405 575.087 161.175 574.647 160.875L575.172 159.555C576.082 160.105 577.022 160.38 577.992 160.38C579.292 160.38 579.942 159.74 579.942 158.46V157.5C579.722 157.91 579.402 158.23 578.982 158.46C578.562 158.68 578.082 158.79 577.542 158.79C576.902 158.79 576.332 158.64 575.832 158.34C575.342 158.03 574.957 157.6 574.677 157.05C574.397 156.5 574.257 155.865 574.257 155.145C574.257 154.425 574.392 153.79 574.662 153.24C574.942 152.68 575.332 152.25 575.832 151.95C576.332 151.64 576.902 151.485 577.542 151.485C578.082 151.485 578.562 151.6 578.982 151.83C579.402 152.05 579.722 152.365 579.942 152.775V151.665H581.802ZM578.037 157.335C578.637 157.335 579.102 157.14 579.432 156.75C579.772 156.36 579.942 155.825 579.942 155.145C579.942 154.455 579.772 153.915 579.432 153.525C579.102 153.135 578.637 152.94 578.037 152.94C577.447 152.94 576.982 153.135 576.642 153.525C576.302 153.915 576.132 154.455 576.132 155.145C576.132 155.815 576.302 156.35 576.642 156.75C576.982 157.14 577.447 157.335 578.037 157.335ZM583.894 159V148.425H585.769V159H583.894ZM594.288 155.67H589.293C589.353 156.35 589.558 156.855 589.908 157.185C590.258 157.515 590.758 157.68 591.408 157.68C592.218 157.68 592.958 157.42 593.628 156.9L594.168 158.19C593.828 158.47 593.398 158.695 592.878 158.865C592.368 159.035 591.853 159.12 591.333 159.12C590.133 159.12 589.183 158.78 588.483 158.1C587.793 157.42 587.448 156.49 587.448 155.31C587.448 154.56 587.598 153.895 587.898 153.315C588.198 152.735 588.618 152.285 589.158 151.965C589.708 151.645 590.328 151.485 591.018 151.485C592.028 151.485 592.823 151.81 593.403 152.46C593.993 153.11 594.288 154.005 594.288 155.145V155.67ZM591.063 152.805C590.563 152.805 590.158 152.965 589.848 153.285C589.548 153.605 589.363 154.065 589.293 154.665H592.683C592.663 154.055 592.513 153.595 592.233 153.285C591.953 152.965 591.563 152.805 591.063 152.805Z" fill="black"></path><path d="M73 34L120.631 116.5H25.3686L73 34Z" fill="#FF4081" fill-opacity="0.3"></path><line x1="46.366" y1="73.634" x2="55.0263" y2="78.634" stroke="black" stroke-width="2" stroke-linecap="round"></line><line x1="1" y1="-1" x2="11" y2="-1" transform="matrix(-0.866025 0.5 0.5 0.866025 101.391 74)" stroke="black" stroke-width="2" stroke-linecap="round"></line><line x1="1" y1="-1" x2="11" y2="-1" transform="matrix(0 -1 -1 0 73 121)" stroke="black" stroke-width="2" stroke-linecap="round"></line><mask id="path-13-inside-3_2025:82245" fill="white"><path d="M83.2122 54.1962C80.0145 56.0953 76.3506 57.065 72.6321 56.9966C68.9136 56.9282 65.2878 55.8243 62.1621 53.8089L73 37L83.2122 54.1962Z"></path></mask><path d="M83.2122 54.1962C80.0145 56.0953 76.3506 57.065 72.6321 56.9966C68.9136 56.9282 65.2878 55.8243 62.1621 53.8089L73 37L83.2122 54.1962Z" fill="#FF4081" stroke="black" stroke-width="4" mask="url(#path-13-inside-3_2025:82245)"></path><mask id="path-14-inside-4_2025:82245" fill="white"><path d="M99.5428 116.15C99.61 112.695 100.572 109.315 102.334 106.342C104.096 103.369 106.599 100.903 109.598 99.1849L119.539 116.539L99.5428 116.15Z"></path></mask><path d="M99.5428 116.15C99.61 112.695 100.572 109.315 102.334 106.342C104.096 103.369 106.599 100.903 109.598 99.1849L119.539 116.539L99.5428 116.15Z" fill="#FF4081" stroke="black" stroke-width="4" mask="url(#path-14-inside-4_2025:82245)"></path><mask id="path-15-inside-5_2025:82245" fill="white"><path d="M46.539 115.586C46.5471 112.13 45.6593 108.73 43.9622 105.719C42.2651 102.708 39.8167 100.188 36.8556 98.4056L26.5391 115.539L46.539 115.586Z"></path></mask><path d="M46.539 115.586C46.5471 112.13 45.6593 108.73 43.9622 105.719C42.2651 102.708 39.8167 100.188 36.8556 98.4056L26.5391 115.539L46.539 115.586Z" fill="#FF4081" stroke="black" stroke-width="4" mask="url(#path-15-inside-5_2025:82245)"></path><path d="M27.9667 115L73 37L118.033 115H27.9667Z" stroke="black" stroke-width="3"></path><path d="M36.628 140V129.425H43.708V130.955H38.518V133.865H43.408V135.38H38.518V138.47H43.708V140H36.628ZM52.526 132.665V142.7H50.651V138.845C50.431 139.245 50.111 139.56 49.691 139.79C49.281 140.01 48.816 140.12 48.296 140.12C47.656 140.12 47.091 139.965 46.601 139.655C46.111 139.345 45.726 138.905 45.446 138.335C45.176 137.765 45.041 137.1 45.041 136.34C45.041 135.58 45.176 134.91 45.446 134.33C45.726 133.74 46.111 133.285 46.601 132.965C47.101 132.645 47.666 132.485 48.296 132.485C48.826 132.485 49.296 132.6 49.706 132.83C50.126 133.05 50.446 133.365 50.666 133.775V132.665H52.526ZM48.806 138.665C49.396 138.665 49.851 138.46 50.171 138.05C50.501 137.64 50.666 137.06 50.666 136.31C50.666 135.55 50.501 134.965 50.171 134.555C49.851 134.145 49.391 133.94 48.791 133.94C48.201 133.94 47.741 134.15 47.411 134.57C47.081 134.99 46.916 135.58 46.916 136.34C46.916 137.08 47.081 137.655 47.411 138.065C47.741 138.465 48.206 138.665 48.806 138.665ZM61.3398 132.665V140H59.5098V138.875C59.2798 139.275 58.9698 139.585 58.5798 139.805C58.1898 140.015 57.7498 140.12 57.2598 140.12C55.4598 140.12 54.5598 139.11 54.5598 137.09V132.665H56.4348V137.105C56.4348 137.625 56.5398 138.01 56.7498 138.26C56.9598 138.51 57.2898 138.635 57.7398 138.635C58.2598 138.635 58.6748 138.465 58.9848 138.125C59.3048 137.775 59.4648 137.315 59.4648 136.745V132.665H61.3398ZM63.4413 140V132.665H65.3163V140H63.4413ZM63.3363 129.26H65.4063V131.105H63.3363V129.26ZM67.3999 140V129.425H69.2749V140H67.3999ZM74.5085 132.485C75.5385 132.485 76.3035 132.735 76.8035 133.235C77.3035 133.735 77.5535 134.505 77.5535 135.545V140H75.7685V138.875C75.5985 139.265 75.3285 139.57 74.9585 139.79C74.5985 140.01 74.1785 140.12 73.6985 140.12C73.2085 140.12 72.7635 140.02 72.3635 139.82C71.9635 139.62 71.6485 139.345 71.4185 138.995C71.1885 138.645 71.0735 138.255 71.0735 137.825C71.0735 137.285 71.2085 136.86 71.4785 136.55C71.7585 136.24 72.2085 136.015 72.8285 135.875C73.4485 135.735 74.3035 135.665 75.3935 135.665H75.7685V135.32C75.7685 134.82 75.6585 134.46 75.4385 134.24C75.2285 134.02 74.8735 133.91 74.3735 133.91C73.9835 133.91 73.5735 133.98 73.1435 134.12C72.7235 134.25 72.3085 134.435 71.8985 134.675L71.3735 133.385C71.7835 133.125 72.2785 132.91 72.8585 132.74C73.4385 132.57 73.9885 132.485 74.5085 132.485ZM74.0735 138.77C74.5735 138.77 74.9785 138.605 75.2885 138.275C75.6085 137.935 75.7685 137.5 75.7685 136.97V136.655H75.4985C74.8285 136.655 74.3085 136.685 73.9385 136.745C73.5685 136.805 73.3035 136.91 73.1435 137.06C72.9835 137.21 72.9035 137.415 72.9035 137.675C72.9035 137.995 73.0135 138.26 73.2335 138.47C73.4535 138.67 73.7335 138.77 74.0735 138.77ZM83.3591 138.71C83.5791 138.71 83.8091 138.695 84.0491 138.665L83.9591 140.06C83.6591 140.09 83.3841 140.105 83.1341 140.105C82.1041 140.105 81.3441 139.87 80.8541 139.4C80.3641 138.92 80.1191 138.21 80.1191 137.27V134.075H78.7091V132.665H80.1191V130.475H81.9941V132.665H83.9291V134.075H81.9941V137.24C81.9941 138.22 82.4491 138.71 83.3591 138.71ZM91.7312 136.67H86.7362C86.7962 137.35 87.0012 137.855 87.3512 138.185C87.7012 138.515 88.2012 138.68 88.8512 138.68C89.6612 138.68 90.4012 138.42 91.0712 137.9L91.6112 139.19C91.2712 139.47 90.8412 139.695 90.3212 139.865C89.8112 140.035 89.2962 140.12 88.7762 140.12C87.5762 140.12 86.6262 139.78 85.9262 139.1C85.2362 138.42 84.8912 137.49 84.8912 136.31C84.8912 135.56 85.0412 134.895 85.3412 134.315C85.6412 133.735 86.0612 133.285 86.6012 132.965C87.1512 132.645 87.7712 132.485 88.4612 132.485C89.4712 132.485 90.2662 132.81 90.8462 133.46C91.4362 134.11 91.7312 135.005 91.7312 136.145V136.67ZM88.5062 133.805C88.0062 133.805 87.6012 133.965 87.2912 134.285C86.9912 134.605 86.8062 135.065 86.7362 135.665H90.1262C90.1062 135.055 89.9562 134.595 89.6762 134.285C89.3962 133.965 89.0062 133.805 88.5062 133.805ZM98.2449 134.045L97.1499 134.15C95.9099 134.28 95.2899 134.91 95.2899 136.04V140H93.4149V132.665H95.1999V133.955C95.5799 133.075 96.3649 132.595 97.5549 132.515L98.1249 132.47L98.2449 134.045ZM102.428 132.485C103.458 132.485 104.223 132.735 104.723 133.235C105.223 133.735 105.473 134.505 105.473 135.545V140H103.688V138.875C103.518 139.265 103.248 139.57 102.878 139.79C102.518 140.01 102.098 140.12 101.618 140.12C101.128 140.12 100.683 140.02 100.283 139.82C99.8828 139.62 99.5678 139.345 99.3378 138.995C99.1078 138.645 98.9928 138.255 98.9928 137.825C98.9928 137.285 99.1278 136.86 99.3978 136.55C99.6778 136.24 100.128 136.015 100.748 135.875C101.368 135.735 102.223 135.665 103.313 135.665H103.688V135.32C103.688 134.82 103.578 134.46 103.358 134.24C103.148 134.02 102.793 133.91 102.293 133.91C101.903 133.91 101.493 133.98 101.063 134.12C100.643 134.25 100.228 134.435 99.8178 134.675L99.2928 133.385C99.7028 133.125 100.198 132.91 100.778 132.74C101.358 132.57 101.908 132.485 102.428 132.485ZM101.993 138.77C102.493 138.77 102.898 138.605 103.208 138.275C103.528 137.935 103.688 137.5 103.688 136.97V136.655H103.418C102.748 136.655 102.228 136.685 101.858 136.745C101.488 136.805 101.223 136.91 101.063 137.06C100.903 137.21 100.823 137.415 100.823 137.675C100.823 137.995 100.933 138.26 101.153 138.47C101.373 138.67 101.653 138.77 101.993 138.77ZM107.528 140V129.425H109.403V140H107.528ZM48.4488 159V150.015H44.9988V148.425H53.8338V150.015H50.3838V159H48.4488ZM58.8011 153.045L57.7061 153.15C56.4661 153.28 55.8461 153.91 55.8461 155.04V159H53.9711V151.665H55.7561V152.955C56.1361 152.075 56.9211 151.595 58.1111 151.515L58.6811 151.47L58.8011 153.045ZM59.8633 159V151.665H61.7383V159H59.8633ZM59.7583 148.26H61.8283V150.105H59.7583V148.26ZM66.9719 151.485C68.0019 151.485 68.7669 151.735 69.2669 152.235C69.7669 152.735 70.0169 153.505 70.0169 154.545V159H68.2319V157.875C68.0619 158.265 67.7919 158.57 67.4219 158.79C67.0619 159.01 66.6419 159.12 66.1619 159.12C65.6719 159.12 65.2269 159.02 64.8269 158.82C64.4269 158.62 64.1119 158.345 63.8819 157.995C63.6519 157.645 63.5369 157.255 63.5369 156.825C63.5369 156.285 63.6719 155.86 63.9419 155.55C64.2219 155.24 64.6719 155.015 65.2919 154.875C65.9119 154.735 66.7669 154.665 67.8569 154.665H68.2319V154.32C68.2319 153.82 68.1219 153.46 67.9019 153.24C67.6919 153.02 67.3369 152.91 66.8369 152.91C66.4469 152.91 66.0369 152.98 65.6069 153.12C65.1869 153.25 64.7719 153.435 64.3619 153.675L63.8369 152.385C64.2469 152.125 64.7419 151.91 65.3219 151.74C65.9019 151.57 66.4519 151.485 66.9719 151.485ZM66.5369 157.77C67.0369 157.77 67.4419 157.605 67.7519 157.275C68.0719 156.935 68.2319 156.5 68.2319 155.97V155.655H67.9619C67.2919 155.655 66.7719 155.685 66.4019 155.745C66.0319 155.805 65.7669 155.91 65.6069 156.06C65.4469 156.21 65.3669 156.415 65.3669 156.675C65.3669 156.995 65.4769 157.26 65.6969 157.47C65.9169 157.67 66.1969 157.77 66.5369 157.77ZM76.3325 151.485C77.2125 151.485 77.8675 151.735 78.2975 152.235C78.7275 152.735 78.9425 153.49 78.9425 154.5V159H77.0675V154.605C77.0675 154.035 76.9575 153.62 76.7375 153.36C76.5275 153.1 76.1925 152.97 75.7325 152.97C75.1925 152.97 74.7575 153.14 74.4275 153.48C74.1075 153.82 73.9475 154.275 73.9475 154.845V159H72.0725V151.665H73.9025V152.76C74.1525 152.35 74.4875 152.035 74.9075 151.815C75.3275 151.595 75.8025 151.485 76.3325 151.485ZM88.1369 151.665V158.325C88.1369 159.475 87.8169 160.345 87.1769 160.935C86.5469 161.525 85.6119 161.82 84.3719 161.82C83.7319 161.82 83.1169 161.735 82.5269 161.565C81.9369 161.405 81.4219 161.175 80.9819 160.875L81.5069 159.555C82.4169 160.105 83.3569 160.38 84.3269 160.38C85.6269 160.38 86.2769 159.74 86.2769 158.46V157.5C86.0569 157.91 85.7369 158.23 85.3169 158.46C84.8969 158.68 84.4169 158.79 83.8769 158.79C83.2369 158.79 82.6669 158.64 82.1669 158.34C81.6769 158.03 81.2919 157.6 81.0119 157.05C80.7319 156.5 80.5919 155.865 80.5919 155.145C80.5919 154.425 80.7269 153.79 80.9969 153.24C81.2769 152.68 81.6669 152.25 82.1669 151.95C82.6669 151.64 83.2369 151.485 83.8769 151.485C84.4169 151.485 84.8969 151.6 85.3169 151.83C85.7369 152.05 86.0569 152.365 86.2769 152.775V151.665H88.1369ZM84.3719 157.335C84.9719 157.335 85.4369 157.14 85.7669 156.75C86.1069 156.36 86.2769 155.825 86.2769 155.145C86.2769 154.455 86.1069 153.915 85.7669 153.525C85.4369 153.135 84.9719 152.94 84.3719 152.94C83.7819 152.94 83.3169 153.135 82.9769 153.525C82.6369 153.915 82.4669 154.455 82.4669 155.145C82.4669 155.815 82.6369 156.35 82.9769 156.75C83.3169 157.14 83.7819 157.335 84.3719 157.335ZM90.2289 159V148.425H92.1039V159H90.2289ZM100.623 155.67H95.6275C95.6875 156.35 95.8925 156.855 96.2425 157.185C96.5925 157.515 97.0925 157.68 97.7425 157.68C98.5525 157.68 99.2925 157.42 99.9625 156.9L100.503 158.19C100.163 158.47 99.7325 158.695 99.2125 158.865C98.7025 159.035 98.1875 159.12 97.6675 159.12C96.4675 159.12 95.5175 158.78 94.8175 158.1C94.1275 157.42 93.7825 156.49 93.7825 155.31C93.7825 154.56 93.9325 153.895 94.2325 153.315C94.5325 152.735 94.9525 152.285 95.4925 151.965C96.0425 151.645 96.6625 151.485 97.3525 151.485C98.3625 151.485 99.1575 151.81 99.7375 152.46C100.328 153.11 100.623 154.005 100.623 155.145V155.67ZM97.3975 152.805C96.8975 152.805 96.4925 152.965 96.1825 153.285C95.8825 153.605 95.6975 154.065 95.6275 154.665H99.0175C98.9975 154.055 98.8475 153.595 98.5675 153.285C98.2875 152.965 97.8975 152.805 97.3975 152.805Z" fill="black"></path><path d="M190 2L224.641 116H155.359L190 2Z" fill="#FF4081" fill-opacity="0.3"></path><line x1="167.366" y1="62.634" x2="176.026" y2="67.634" stroke="black" stroke-width="2" stroke-linecap="round"></line><line x1="1" y1="-1" x2="11" y2="-1" transform="matrix(-0.866025 0.5 0.5 0.866025 213.391 63)" stroke="black" stroke-width="2" stroke-linecap="round"></line><mask id="path-21-inside-6_2025:82245" fill="white"><path d="M176.539 115.586C176.549 111.334 175.204 107.19 172.698 103.754C170.192 100.319 166.657 97.7714 162.605 96.4817L156.539 115.539L176.539 115.586Z"></path></mask><path d="M176.539 115.586C176.549 111.334 175.204 107.19 172.698 103.754C170.192 100.319 166.657 97.7714 162.605 96.4817L156.539 115.539L176.539 115.586Z" fill="#FF4081" stroke="black" stroke-width="4" mask="url(#path-21-inside-6_2025:82245)"></path><mask id="path-22-inside-7_2025:82245" fill="white"><path d="M203.539 115.586C203.529 111.334 204.875 107.19 207.38 103.754C209.886 100.319 213.421 97.7714 217.473 96.4817L223.539 115.539L203.539 115.586Z"></path></mask><path d="M203.539 115.586C203.529 111.334 204.875 107.19 207.38 103.754C209.886 100.319 213.421 97.7714 217.473 96.4817L223.539 115.539L203.539 115.586Z" fill="#FF4081" stroke="black" stroke-width="4" mask="url(#path-22-inside-7_2025:82245)"></path><path d="M157.383 114.5L190 7.15922L222.617 114.5H157.383Z" stroke="black" stroke-width="3" stroke-linejoin="round"></path><path d="M159.586 140V129.425H161.521V140H159.586ZM166.49 140.12C165.84 140.12 165.24 140.04 164.69 139.88C164.15 139.72 163.69 139.49 163.31 139.19L163.835 137.885C164.615 138.455 165.51 138.74 166.52 138.74C166.95 138.74 167.275 138.67 167.495 138.53C167.725 138.39 167.84 138.19 167.84 137.93C167.84 137.71 167.76 137.54 167.6 137.42C167.45 137.3 167.175 137.19 166.775 137.09L165.575 136.82C164.895 136.67 164.39 136.425 164.06 136.085C163.73 135.745 163.565 135.305 163.565 134.765C163.565 134.315 163.69 133.92 163.94 133.58C164.2 133.23 164.555 132.96 165.005 132.77C165.465 132.58 165.995 132.485 166.595 132.485C167.115 132.485 167.615 132.565 168.095 132.725C168.585 132.885 169.015 133.11 169.385 133.4L168.86 134.675C168.1 134.125 167.34 133.85 166.58 133.85C166.17 133.85 165.85 133.925 165.62 134.075C165.39 134.225 165.275 134.435 165.275 134.705C165.275 134.905 165.345 135.07 165.485 135.2C165.635 135.33 165.87 135.43 166.19 135.5L167.435 135.785C168.165 135.945 168.7 136.2 169.04 136.55C169.38 136.89 169.55 137.34 169.55 137.9C169.55 138.58 169.275 139.12 168.725 139.52C168.175 139.92 167.43 140.12 166.49 140.12ZM174.565 140.12C173.815 140.12 173.155 139.965 172.585 139.655C172.025 139.345 171.59 138.9 171.28 138.32C170.97 137.74 170.815 137.065 170.815 136.295C170.815 135.525 170.97 134.855 171.28 134.285C171.59 133.705 172.025 133.26 172.585 132.95C173.155 132.64 173.815 132.485 174.565 132.485C175.315 132.485 175.97 132.64 176.53 132.95C177.1 133.26 177.535 133.705 177.835 134.285C178.145 134.855 178.3 135.525 178.3 136.295C178.3 137.065 178.145 137.74 177.835 138.32C177.535 138.9 177.1 139.345 176.53 139.655C175.97 139.965 175.315 140.12 174.565 140.12ZM174.55 138.665C175.16 138.665 175.625 138.465 175.945 138.065C176.265 137.665 176.425 137.075 176.425 136.295C176.425 135.525 176.265 134.94 175.945 134.54C175.625 134.13 175.165 133.925 174.565 133.925C173.965 133.925 173.5 134.13 173.17 134.54C172.85 134.94 172.69 135.525 172.69 136.295C172.69 137.075 172.85 137.665 173.17 138.065C173.49 138.465 173.95 138.665 174.55 138.665ZM182.698 140.12C182.048 140.12 181.448 140.04 180.898 139.88C180.358 139.72 179.898 139.49 179.518 139.19L180.043 137.885C180.823 138.455 181.718 138.74 182.728 138.74C183.158 138.74 183.483 138.67 183.703 138.53C183.933 138.39 184.048 138.19 184.048 137.93C184.048 137.71 183.968 137.54 183.808 137.42C183.658 137.3 183.383 137.19 182.983 137.09L181.783 136.82C181.103 136.67 180.598 136.425 180.268 136.085C179.938 135.745 179.773 135.305 179.773 134.765C179.773 134.315 179.898 133.92 180.148 133.58C180.408 133.23 180.763 132.96 181.213 132.77C181.673 132.58 182.203 132.485 182.803 132.485C183.323 132.485 183.823 132.565 184.303 132.725C184.793 132.885 185.223 133.11 185.593 133.4L185.068 134.675C184.308 134.125 183.548 133.85 182.788 133.85C182.378 133.85 182.058 133.925 181.828 134.075C181.598 134.225 181.483 134.435 181.483 134.705C181.483 134.905 181.553 135.07 181.693 135.2C181.843 135.33 182.078 135.43 182.398 135.5L183.643 135.785C184.373 135.945 184.908 136.2 185.248 136.55C185.588 136.89 185.758 137.34 185.758 137.9C185.758 138.58 185.483 139.12 184.933 139.52C184.383 139.92 183.638 140.12 182.698 140.12ZM190.773 140.12C190.003 140.12 189.333 139.965 188.763 139.655C188.203 139.345 187.773 138.905 187.473 138.335C187.173 137.765 187.023 137.1 187.023 136.34C187.023 135.58 187.178 134.91 187.488 134.33C187.808 133.74 188.258 133.285 188.838 132.965C189.418 132.645 190.088 132.485 190.848 132.485C191.368 132.485 191.873 132.57 192.363 132.74C192.863 132.9 193.263 133.12 193.563 133.4L193.023 134.72C192.713 134.47 192.383 134.28 192.033 134.15C191.693 134.02 191.353 133.955 191.013 133.955C190.363 133.955 189.858 134.16 189.498 134.57C189.138 134.97 188.958 135.55 188.958 136.31C188.958 137.06 189.138 137.64 189.498 138.05C189.858 138.45 190.363 138.65 191.013 138.65C191.353 138.65 191.693 138.585 192.033 138.455C192.383 138.325 192.713 138.135 193.023 137.885L193.563 139.19C193.243 139.48 192.833 139.71 192.333 139.88C191.833 140.04 191.313 140.12 190.773 140.12ZM201.338 136.67H196.343C196.403 137.35 196.608 137.855 196.958 138.185C197.308 138.515 197.808 138.68 198.458 138.68C199.268 138.68 200.008 138.42 200.678 137.9L201.218 139.19C200.878 139.47 200.448 139.695 199.928 139.865C199.418 140.035 198.903 140.12 198.383 140.12C197.183 140.12 196.233 139.78 195.533 139.1C194.843 138.42 194.498 137.49 194.498 136.31C194.498 135.56 194.648 134.895 194.948 134.315C195.248 133.735 195.668 133.285 196.208 132.965C196.758 132.645 197.378 132.485 198.068 132.485C199.078 132.485 199.873 132.81 200.453 133.46C201.043 134.11 201.338 135.005 201.338 136.145V136.67ZM198.113 133.805C197.613 133.805 197.208 133.965 196.898 134.285C196.598 134.605 196.413 135.065 196.343 135.665H199.733C199.713 135.055 199.563 134.595 199.283 134.285C199.003 133.965 198.613 133.805 198.113 133.805ZM203.021 140V129.425H204.896V140H203.021ZM213.415 136.67H208.42C208.48 137.35 208.685 137.855 209.035 138.185C209.385 138.515 209.885 138.68 210.535 138.68C211.345 138.68 212.085 138.42 212.755 137.9L213.295 139.19C212.955 139.47 212.525 139.695 212.005 139.865C211.495 140.035 210.98 140.12 210.46 140.12C209.26 140.12 208.31 139.78 207.61 139.1C206.92 138.42 206.575 137.49 206.575 136.31C206.575 135.56 206.725 134.895 207.025 134.315C207.325 133.735 207.745 133.285 208.285 132.965C208.835 132.645 209.455 132.485 210.145 132.485C211.155 132.485 211.95 132.81 212.53 133.46C213.12 134.11 213.415 135.005 213.415 136.145V136.67ZM210.19 133.805C209.69 133.805 209.285 133.965 208.975 134.285C208.675 134.605 208.49 135.065 208.42 135.665H211.81C211.79 135.055 211.64 134.595 211.36 134.285C211.08 133.965 210.69 133.805 210.19 133.805ZM217.799 140.12C217.149 140.12 216.549 140.04 215.999 139.88C215.459 139.72 214.999 139.49 214.619 139.19L215.144 137.885C215.924 138.455 216.819 138.74 217.829 138.74C218.259 138.74 218.584 138.67 218.804 138.53C219.034 138.39 219.149 138.19 219.149 137.93C219.149 137.71 219.069 137.54 218.909 137.42C218.759 137.3 218.484 137.19 218.084 137.09L216.884 136.82C216.204 136.67 215.699 136.425 215.369 136.085C215.039 135.745 214.874 135.305 214.874 134.765C214.874 134.315 214.999 133.92 215.249 133.58C215.509 133.23 215.864 132.96 216.314 132.77C216.774 132.58 217.304 132.485 217.904 132.485C218.424 132.485 218.924 132.565 219.404 132.725C219.894 132.885 220.324 133.11 220.694 133.4L220.169 134.675C219.409 134.125 218.649 133.85 217.889 133.85C217.479 133.85 217.159 133.925 216.929 134.075C216.699 134.225 216.584 134.435 216.584 134.705C216.584 134.905 216.654 135.07 216.794 135.2C216.944 135.33 217.179 135.43 217.499 135.5L218.744 135.785C219.474 135.945 220.009 136.2 220.349 136.55C220.689 136.89 220.859 137.34 220.859 137.9C220.859 138.58 220.584 139.12 220.034 139.52C219.484 139.92 218.739 140.12 217.799 140.12ZM165.449 159V150.015H161.999V148.425H170.834V150.015H167.384V159H165.449ZM175.801 153.045L174.706 153.15C173.466 153.28 172.846 153.91 172.846 155.04V159H170.971V151.665H172.756V152.955C173.136 152.075 173.921 151.595 175.111 151.515L175.681 151.47L175.801 153.045ZM176.863 159V151.665H178.738V159H176.863ZM176.758 148.26H178.828V150.105H176.758V148.26ZM183.972 151.485C185.002 151.485 185.767 151.735 186.267 152.235C186.767 152.735 187.017 153.505 187.017 154.545V159H185.232V157.875C185.062 158.265 184.792 158.57 184.422 158.79C184.062 159.01 183.642 159.12 183.162 159.12C182.672 159.12 182.227 159.02 181.827 158.82C181.427 158.62 181.112 158.345 180.882 157.995C180.652 157.645 180.537 157.255 180.537 156.825C180.537 156.285 180.672 155.86 180.942 155.55C181.222 155.24 181.672 155.015 182.292 154.875C182.912 154.735 183.767 154.665 184.857 154.665H185.232V154.32C185.232 153.82 185.122 153.46 184.902 153.24C184.692 153.02 184.337 152.91 183.837 152.91C183.447 152.91 183.037 152.98 182.607 153.12C182.187 153.25 181.772 153.435 181.362 153.675L180.837 152.385C181.247 152.125 181.742 151.91 182.322 151.74C182.902 151.57 183.452 151.485 183.972 151.485ZM183.537 157.77C184.037 157.77 184.442 157.605 184.752 157.275C185.072 156.935 185.232 156.5 185.232 155.97V155.655H184.962C184.292 155.655 183.772 155.685 183.402 155.745C183.032 155.805 182.767 155.91 182.607 156.06C182.447 156.21 182.367 156.415 182.367 156.675C182.367 156.995 182.477 157.26 182.697 157.47C182.917 157.67 183.197 157.77 183.537 157.77ZM193.332 151.485C194.212 151.485 194.867 151.735 195.297 152.235C195.727 152.735 195.942 153.49 195.942 154.5V159H194.067V154.605C194.067 154.035 193.957 153.62 193.737 153.36C193.527 153.1 193.192 152.97 192.732 152.97C192.192 152.97 191.757 153.14 191.427 153.48C191.107 153.82 190.947 154.275 190.947 154.845V159H189.072V151.665H190.902V152.76C191.152 152.35 191.487 152.035 191.907 151.815C192.327 151.595 192.802 151.485 193.332 151.485ZM205.137 151.665V158.325C205.137 159.475 204.817 160.345 204.177 160.935C203.547 161.525 202.612 161.82 201.372 161.82C200.732 161.82 200.117 161.735 199.527 161.565C198.937 161.405 198.422 161.175 197.982 160.875L198.507 159.555C199.417 160.105 200.357 160.38 201.327 160.38C202.627 160.38 203.277 159.74 203.277 158.46V157.5C203.057 157.91 202.737 158.23 202.317 158.46C201.897 158.68 201.417 158.79 200.877 158.79C200.237 158.79 199.667 158.64 199.167 158.34C198.677 158.03 198.292 157.6 198.012 157.05C197.732 156.5 197.592 155.865 197.592 155.145C197.592 154.425 197.727 153.79 197.997 153.24C198.277 152.68 198.667 152.25 199.167 151.95C199.667 151.64 200.237 151.485 200.877 151.485C201.417 151.485 201.897 151.6 202.317 151.83C202.737 152.05 203.057 152.365 203.277 152.775V151.665H205.137ZM201.372 157.335C201.972 157.335 202.437 157.14 202.767 156.75C203.107 156.36 203.277 155.825 203.277 155.145C203.277 154.455 203.107 153.915 202.767 153.525C202.437 153.135 201.972 152.94 201.372 152.94C200.782 152.94 200.317 153.135 199.977 153.525C199.637 153.915 199.467 154.455 199.467 155.145C199.467 155.815 199.637 156.35 199.977 156.75C200.317 157.14 200.782 157.335 201.372 157.335ZM207.229 159V148.425H209.104V159H207.229ZM217.623 155.67H212.628C212.688 156.35 212.893 156.855 213.243 157.185C213.593 157.515 214.093 157.68 214.743 157.68C215.553 157.68 216.293 157.42 216.963 156.9L217.503 158.19C217.163 158.47 216.733 158.695 216.213 158.865C215.703 159.035 215.188 159.12 214.668 159.12C213.468 159.12 212.518 158.78 211.818 158.1C211.128 157.42 210.783 156.49 210.783 155.31C210.783 154.56 210.933 153.895 211.233 153.315C211.533 152.735 211.953 152.285 212.493 151.965C213.043 151.645 213.663 151.485 214.353 151.485C215.363 151.485 216.158 151.81 216.738 152.46C217.328 153.11 217.623 154.005 217.623 155.145V155.67ZM214.398 152.805C213.898 152.805 213.493 152.965 213.183 153.285C212.883 153.605 212.698 154.065 212.628 154.665H216.018C215.998 154.055 215.848 153.595 215.568 153.285C215.288 152.965 214.898 152.805 214.398 152.805Z" fill="black"></path><path d="M278.445 140.135C277.635 140.135 276.875 140.025 276.165 139.805C275.455 139.585 274.855 139.275 274.365 138.875L275.01 137.465C275.52 137.855 276.055 138.14 276.615 138.32C277.185 138.5 277.8 138.59 278.46 138.59C279.19 138.59 279.75 138.465 280.14 138.215C280.54 137.955 280.74 137.595 280.74 137.135C280.74 136.735 280.555 136.43 280.185 136.22C279.825 136.01 279.22 135.81 278.37 135.62C277.49 135.43 276.775 135.21 276.225 134.96C275.675 134.71 275.26 134.39 274.98 134C274.7 133.61 274.56 133.115 274.56 132.515C274.56 131.895 274.73 131.34 275.07 130.85C275.41 130.36 275.89 129.98 276.51 129.71C277.13 129.43 277.845 129.29 278.655 129.29C279.395 129.29 280.1 129.405 280.77 129.635C281.44 129.855 281.99 130.16 282.42 130.55L281.775 131.96C280.835 131.21 279.795 130.835 278.655 130.835C277.975 130.835 277.435 130.975 277.035 131.255C276.645 131.525 276.45 131.905 276.45 132.395C276.45 132.805 276.625 133.12 276.975 133.34C277.325 133.56 277.92 133.765 278.76 133.955C279.65 134.155 280.37 134.38 280.92 134.63C281.48 134.87 281.905 135.18 282.195 135.56C282.495 135.94 282.645 136.42 282.645 137C282.645 137.63 282.475 138.185 282.135 138.665C281.805 139.135 281.32 139.5 280.68 139.76C280.05 140.01 279.305 140.135 278.445 140.135ZM287.755 140.12C286.985 140.12 286.315 139.965 285.745 139.655C285.185 139.345 284.755 138.905 284.455 138.335C284.155 137.765 284.005 137.1 284.005 136.34C284.005 135.58 284.16 134.91 284.47 134.33C284.79 133.74 285.24 133.285 285.82 132.965C286.4 132.645 287.07 132.485 287.83 132.485C288.35 132.485 288.855 132.57 289.345 132.74C289.845 132.9 290.245 133.12 290.545 133.4L290.005 134.72C289.695 134.47 289.365 134.28 289.015 134.15C288.675 134.02 288.335 133.955 287.995 133.955C287.345 133.955 286.84 134.16 286.48 134.57C286.12 134.97 285.94 135.55 285.94 136.31C285.94 137.06 286.12 137.64 286.48 138.05C286.84 138.45 287.345 138.65 287.995 138.65C288.335 138.65 288.675 138.585 289.015 138.455C289.365 138.325 289.695 138.135 290.005 137.885L290.545 139.19C290.225 139.48 289.815 139.71 289.315 139.88C288.815 140.04 288.295 140.12 287.755 140.12ZM295.034 132.485C296.064 132.485 296.829 132.735 297.329 133.235C297.829 133.735 298.079 134.505 298.079 135.545V140H296.294V138.875C296.124 139.265 295.854 139.57 295.484 139.79C295.124 140.01 294.704 140.12 294.224 140.12C293.734 140.12 293.289 140.02 292.889 139.82C292.489 139.62 292.174 139.345 291.944 138.995C291.714 138.645 291.599 138.255 291.599 137.825C291.599 137.285 291.734 136.86 292.004 136.55C292.284 136.24 292.734 136.015 293.354 135.875C293.974 135.735 294.829 135.665 295.919 135.665H296.294V135.32C296.294 134.82 296.184 134.46 295.964 134.24C295.754 134.02 295.399 133.91 294.899 133.91C294.509 133.91 294.099 133.98 293.669 134.12C293.249 134.25 292.834 134.435 292.424 134.675L291.899 133.385C292.309 133.125 292.804 132.91 293.384 132.74C293.964 132.57 294.514 132.485 295.034 132.485ZM294.599 138.77C295.099 138.77 295.504 138.605 295.814 138.275C296.134 137.935 296.294 137.5 296.294 136.97V136.655H296.024C295.354 136.655 294.834 136.685 294.464 136.745C294.094 136.805 293.829 136.91 293.669 137.06C293.509 137.21 293.429 137.415 293.429 137.675C293.429 137.995 293.539 138.26 293.759 138.47C293.979 138.67 294.259 138.77 294.599 138.77ZM300.135 140V129.425H302.01V140H300.135ZM310.528 136.67H305.533C305.593 137.35 305.798 137.855 306.148 138.185C306.498 138.515 306.998 138.68 307.648 138.68C308.458 138.68 309.198 138.42 309.868 137.9L310.408 139.19C310.068 139.47 309.638 139.695 309.118 139.865C308.608 140.035 308.093 140.12 307.573 140.12C306.373 140.12 305.423 139.78 304.723 139.1C304.033 138.42 303.688 137.49 303.688 136.31C303.688 135.56 303.838 134.895 304.138 134.315C304.438 133.735 304.858 133.285 305.398 132.965C305.948 132.645 306.568 132.485 307.258 132.485C308.268 132.485 309.063 132.81 309.643 133.46C310.233 134.11 310.528 135.005 310.528 136.145V136.67ZM307.303 133.805C306.803 133.805 306.398 133.965 306.088 134.285C305.788 134.605 305.603 135.065 305.533 135.665H308.923C308.903 135.055 308.753 134.595 308.473 134.285C308.193 133.965 307.803 133.805 307.303 133.805ZM316.472 132.485C317.352 132.485 318.007 132.735 318.437 133.235C318.867 133.735 319.082 134.49 319.082 135.5V140H317.207V135.605C317.207 135.035 317.097 134.62 316.877 134.36C316.667 134.1 316.332 133.97 315.872 133.97C315.332 133.97 314.897 134.14 314.567 134.48C314.247 134.82 314.087 135.275 314.087 135.845V140H312.212V132.665H314.042V133.76C314.292 133.35 314.627 133.035 315.047 132.815C315.467 132.595 315.942 132.485 316.472 132.485ZM327.572 136.67H322.577C322.637 137.35 322.842 137.855 323.192 138.185C323.542 138.515 324.042 138.68 324.692 138.68C325.502 138.68 326.242 138.42 326.912 137.9L327.452 139.19C327.112 139.47 326.682 139.695 326.162 139.865C325.652 140.035 325.137 140.12 324.617 140.12C323.417 140.12 322.467 139.78 321.767 139.1C321.077 138.42 320.732 137.49 320.732 136.31C320.732 135.56 320.882 134.895 321.182 134.315C321.482 133.735 321.902 133.285 322.442 132.965C322.992 132.645 323.612 132.485 324.302 132.485C325.312 132.485 326.107 132.81 326.687 133.46C327.277 134.11 327.572 135.005 327.572 136.145V136.67ZM324.347 133.805C323.847 133.805 323.442 133.965 323.132 134.285C322.832 134.605 322.647 135.065 322.577 135.665H325.967C325.947 135.055 325.797 134.595 325.517 134.285C325.237 133.965 324.847 133.805 324.347 133.805ZM276.449 159V150.015H272.999V148.425H281.834V150.015H278.384V159H276.449ZM286.801 153.045L285.706 153.15C284.466 153.28 283.846 153.91 283.846 155.04V159H281.971V151.665H283.756V152.955C284.136 152.075 284.921 151.595 286.111 151.515L286.681 151.47L286.801 153.045ZM287.863 159V151.665H289.738V159H287.863ZM287.758 148.26H289.828V150.105H287.758V148.26ZM294.972 151.485C296.002 151.485 296.767 151.735 297.267 152.235C297.767 152.735 298.017 153.505 298.017 154.545V159H296.232V157.875C296.062 158.265 295.792 158.57 295.422 158.79C295.062 159.01 294.642 159.12 294.162 159.12C293.672 159.12 293.227 159.02 292.827 158.82C292.427 158.62 292.112 158.345 291.882 157.995C291.652 157.645 291.537 157.255 291.537 156.825C291.537 156.285 291.672 155.86 291.942 155.55C292.222 155.24 292.672 155.015 293.292 154.875C293.912 154.735 294.767 154.665 295.857 154.665H296.232V154.32C296.232 153.82 296.122 153.46 295.902 153.24C295.692 153.02 295.337 152.91 294.837 152.91C294.447 152.91 294.037 152.98 293.607 153.12C293.187 153.25 292.772 153.435 292.362 153.675L291.837 152.385C292.247 152.125 292.742 151.91 293.322 151.74C293.902 151.57 294.452 151.485 294.972 151.485ZM294.537 157.77C295.037 157.77 295.442 157.605 295.752 157.275C296.072 156.935 296.232 156.5 296.232 155.97V155.655H295.962C295.292 155.655 294.772 155.685 294.402 155.745C294.032 155.805 293.767 155.91 293.607 156.06C293.447 156.21 293.367 156.415 293.367 156.675C293.367 156.995 293.477 157.26 293.697 157.47C293.917 157.67 294.197 157.77 294.537 157.77ZM304.332 151.485C305.212 151.485 305.867 151.735 306.297 152.235C306.727 152.735 306.942 153.49 306.942 154.5V159H305.067V154.605C305.067 154.035 304.957 153.62 304.737 153.36C304.527 153.1 304.192 152.97 303.732 152.97C303.192 152.97 302.757 153.14 302.427 153.48C302.107 153.82 301.947 154.275 301.947 154.845V159H300.072V151.665H301.902V152.76C302.152 152.35 302.487 152.035 302.907 151.815C303.327 151.595 303.802 151.485 304.332 151.485ZM316.137 151.665V158.325C316.137 159.475 315.817 160.345 315.177 160.935C314.547 161.525 313.612 161.82 312.372 161.82C311.732 161.82 311.117 161.735 310.527 161.565C309.937 161.405 309.422 161.175 308.982 160.875L309.507 159.555C310.417 160.105 311.357 160.38 312.327 160.38C313.627 160.38 314.277 159.74 314.277 158.46V157.5C314.057 157.91 313.737 158.23 313.317 158.46C312.897 158.68 312.417 158.79 311.877 158.79C311.237 158.79 310.667 158.64 310.167 158.34C309.677 158.03 309.292 157.6 309.012 157.05C308.732 156.5 308.592 155.865 308.592 155.145C308.592 154.425 308.727 153.79 308.997 153.24C309.277 152.68 309.667 152.25 310.167 151.95C310.667 151.64 311.237 151.485 311.877 151.485C312.417 151.485 312.897 151.6 313.317 151.83C313.737 152.05 314.057 152.365 314.277 152.775V151.665H316.137ZM312.372 157.335C312.972 157.335 313.437 157.14 313.767 156.75C314.107 156.36 314.277 155.825 314.277 155.145C314.277 154.455 314.107 153.915 313.767 153.525C313.437 153.135 312.972 152.94 312.372 152.94C311.782 152.94 311.317 153.135 310.977 153.525C310.637 153.915 310.467 154.455 310.467 155.145C310.467 155.815 310.637 156.35 310.977 156.75C311.317 157.14 311.782 157.335 312.372 157.335ZM318.229 159V148.425H320.104V159H318.229ZM328.623 155.67H323.628C323.688 156.35 323.893 156.855 324.243 157.185C324.593 157.515 325.093 157.68 325.743 157.68C326.553 157.68 327.293 157.42 327.963 156.9L328.503 158.19C328.163 158.47 327.733 158.695 327.213 158.865C326.703 159.035 326.188 159.12 325.668 159.12C324.468 159.12 323.518 158.78 322.818 158.1C322.128 157.42 321.783 156.49 321.783 155.31C321.783 154.56 321.933 153.895 322.233 153.315C322.533 152.735 322.953 152.285 323.493 151.965C324.043 151.645 324.663 151.485 325.353 151.485C326.363 151.485 327.158 151.81 327.738 152.46C328.328 153.11 328.623 154.005 328.623 155.145V155.67ZM325.398 152.805C324.898 152.805 324.493 152.965 324.183 153.285C323.883 153.605 323.698 154.065 323.628 154.665H327.018C326.998 154.055 326.848 153.595 326.568 153.285C326.288 152.965 325.898 152.805 325.398 152.805Z" fill="black"></path><path d="M384.945 140H382.845L381.03 136.625C380.86 136.305 380.65 136.08 380.4 135.95C380.15 135.82 379.835 135.755 379.455 135.755H377.985V140H376.08V129.425H380.76C381.96 129.425 382.87 129.695 383.49 130.235C384.12 130.765 384.435 131.535 384.435 132.545C384.435 133.355 384.205 134.025 383.745 134.555C383.295 135.075 382.655 135.415 381.825 135.575C382.385 135.725 382.835 136.12 383.175 136.76L384.945 140ZM380.49 134.27C381.22 134.27 381.755 134.135 382.095 133.865C382.435 133.585 382.605 133.16 382.605 132.59C382.605 132.01 382.435 131.59 382.095 131.33C381.755 131.06 381.22 130.925 380.49 130.925H377.97V134.27H380.49ZM386.494 140V132.665H388.369V140H386.494ZM386.389 129.26H388.459V131.105H386.389V129.26ZM397.593 132.665V139.325C397.593 140.475 397.273 141.345 396.633 141.935C396.003 142.525 395.068 142.82 393.828 142.82C393.188 142.82 392.573 142.735 391.983 142.565C391.393 142.405 390.878 142.175 390.438 141.875L390.963 140.555C391.873 141.105 392.813 141.38 393.783 141.38C395.083 141.38 395.733 140.74 395.733 139.46V138.5C395.513 138.91 395.193 139.23 394.773 139.46C394.353 139.68 393.873 139.79 393.333 139.79C392.693 139.79 392.123 139.64 391.623 139.34C391.133 139.03 390.748 138.6 390.468 138.05C390.188 137.5 390.048 136.865 390.048 136.145C390.048 135.425 390.183 134.79 390.453 134.24C390.733 133.68 391.123 133.25 391.623 132.95C392.123 132.64 392.693 132.485 393.333 132.485C393.873 132.485 394.353 132.6 394.773 132.83C395.193 133.05 395.513 133.365 395.733 133.775V132.665H397.593ZM393.828 138.335C394.428 138.335 394.893 138.14 395.223 137.75C395.563 137.36 395.733 136.825 395.733 136.145C395.733 135.455 395.563 134.915 395.223 134.525C394.893 134.135 394.428 133.94 393.828 133.94C393.238 133.94 392.773 134.135 392.433 134.525C392.093 134.915 391.923 135.455 391.923 136.145C391.923 136.815 392.093 137.35 392.433 137.75C392.773 138.14 393.238 138.335 393.828 138.335ZM403.945 132.485C404.825 132.485 405.48 132.735 405.91 133.235C406.34 133.735 406.555 134.49 406.555 135.5V140H404.68V135.605C404.68 135.035 404.57 134.62 404.35 134.36C404.14 134.1 403.805 133.97 403.345 133.97C402.805 133.97 402.37 134.14 402.04 134.48C401.72 134.82 401.56 135.275 401.56 135.845V140H399.685V129.425H401.56V133.685C401.81 133.295 402.14 133 402.55 132.8C402.97 132.59 403.435 132.485 403.945 132.485ZM412.359 138.71C412.579 138.71 412.809 138.695 413.049 138.665L412.959 140.06C412.659 140.09 412.384 140.105 412.134 140.105C411.104 140.105 410.344 139.87 409.854 139.4C409.364 138.92 409.119 138.21 409.119 137.27V134.075H407.709V132.665H409.119V130.475H410.994V132.665H412.929V134.075H410.994V137.24C410.994 138.22 411.449 138.71 412.359 138.71ZM426.769 140L425.704 137.525H420.559L419.494 140H417.544L422.329 129.425H423.904L428.689 140H426.769ZM421.189 136.025H425.059L423.124 131.525L421.189 136.025ZM434.062 132.485C434.942 132.485 435.597 132.735 436.027 133.235C436.457 133.735 436.672 134.49 436.672 135.5V140H434.797V135.605C434.797 135.035 434.687 134.62 434.467 134.36C434.257 134.1 433.922 133.97 433.462 133.97C432.922 133.97 432.487 134.14 432.157 134.48C431.837 134.82 431.677 135.275 431.677 135.845V140H429.802V132.665H431.632V133.76C431.882 133.35 432.217 133.035 432.637 132.815C433.057 132.595 433.532 132.485 434.062 132.485ZM445.866 132.665V139.325C445.866 140.475 445.546 141.345 444.906 141.935C444.276 142.525 443.341 142.82 442.101 142.82C441.461 142.82 440.846 142.735 440.256 142.565C439.666 142.405 439.151 142.175 438.711 141.875L439.236 140.555C440.146 141.105 441.086 141.38 442.056 141.38C443.356 141.38 444.006 140.74 444.006 139.46V138.5C443.786 138.91 443.466 139.23 443.046 139.46C442.626 139.68 442.146 139.79 441.606 139.79C440.966 139.79 440.396 139.64 439.896 139.34C439.406 139.03 439.021 138.6 438.741 138.05C438.461 137.5 438.321 136.865 438.321 136.145C438.321 135.425 438.456 134.79 438.726 134.24C439.006 133.68 439.396 133.25 439.896 132.95C440.396 132.64 440.966 132.485 441.606 132.485C442.146 132.485 442.626 132.6 443.046 132.83C443.466 133.05 443.786 133.365 444.006 133.775V132.665H445.866ZM442.101 138.335C442.701 138.335 443.166 138.14 443.496 137.75C443.836 137.36 444.006 136.825 444.006 136.145C444.006 135.455 443.836 134.915 443.496 134.525C443.166 134.135 442.701 133.94 442.101 133.94C441.511 133.94 441.046 134.135 440.706 134.525C440.366 134.915 440.196 135.455 440.196 136.145C440.196 136.815 440.366 137.35 440.706 137.75C441.046 138.14 441.511 138.335 442.101 138.335ZM447.958 140V129.425H449.833V140H447.958ZM458.352 136.67H453.357C453.417 137.35 453.622 137.855 453.972 138.185C454.322 138.515 454.822 138.68 455.472 138.68C456.282 138.68 457.022 138.42 457.692 137.9L458.232 139.19C457.892 139.47 457.462 139.695 456.942 139.865C456.432 140.035 455.917 140.12 455.397 140.12C454.197 140.12 453.247 139.78 452.547 139.1C451.857 138.42 451.512 137.49 451.512 136.31C451.512 135.56 451.662 134.895 451.962 134.315C452.262 133.735 452.682 133.285 453.222 132.965C453.772 132.645 454.392 132.485 455.082 132.485C456.092 132.485 456.887 132.81 457.467 133.46C458.057 134.11 458.352 135.005 458.352 136.145V136.67ZM455.127 133.805C454.627 133.805 454.222 133.965 453.912 134.285C453.612 134.605 453.427 135.065 453.357 135.665H456.747C456.727 135.055 456.577 134.595 456.297 134.285C456.017 133.965 455.627 133.805 455.127 133.805ZM392.449 159V150.015H388.999V148.425H397.834V150.015H394.384V159H392.449ZM402.801 153.045L401.706 153.15C400.466 153.28 399.846 153.91 399.846 155.04V159H397.971V151.665H399.756V152.955C400.136 152.075 400.921 151.595 402.111 151.515L402.681 151.47L402.801 153.045ZM403.863 159V151.665H405.738V159H403.863ZM403.758 148.26H405.828V150.105H403.758V148.26ZM410.972 151.485C412.002 151.485 412.767 151.735 413.267 152.235C413.767 152.735 414.017 153.505 414.017 154.545V159H412.232V157.875C412.062 158.265 411.792 158.57 411.422 158.79C411.062 159.01 410.642 159.12 410.162 159.12C409.672 159.12 409.227 159.02 408.827 158.82C408.427 158.62 408.112 158.345 407.882 157.995C407.652 157.645 407.537 157.255 407.537 156.825C407.537 156.285 407.672 155.86 407.942 155.55C408.222 155.24 408.672 155.015 409.292 154.875C409.912 154.735 410.767 154.665 411.857 154.665H412.232V154.32C412.232 153.82 412.122 153.46 411.902 153.24C411.692 153.02 411.337 152.91 410.837 152.91C410.447 152.91 410.037 152.98 409.607 153.12C409.187 153.25 408.772 153.435 408.362 153.675L407.837 152.385C408.247 152.125 408.742 151.91 409.322 151.74C409.902 151.57 410.452 151.485 410.972 151.485ZM410.537 157.77C411.037 157.77 411.442 157.605 411.752 157.275C412.072 156.935 412.232 156.5 412.232 155.97V155.655H411.962C411.292 155.655 410.772 155.685 410.402 155.745C410.032 155.805 409.767 155.91 409.607 156.06C409.447 156.21 409.367 156.415 409.367 156.675C409.367 156.995 409.477 157.26 409.697 157.47C409.917 157.67 410.197 157.77 410.537 157.77ZM420.332 151.485C421.212 151.485 421.867 151.735 422.297 152.235C422.727 152.735 422.942 153.49 422.942 154.5V159H421.067V154.605C421.067 154.035 420.957 153.62 420.737 153.36C420.527 153.1 420.192 152.97 419.732 152.97C419.192 152.97 418.757 153.14 418.427 153.48C418.107 153.82 417.947 154.275 417.947 154.845V159H416.072V151.665H417.902V152.76C418.152 152.35 418.487 152.035 418.907 151.815C419.327 151.595 419.802 151.485 420.332 151.485ZM432.137 151.665V158.325C432.137 159.475 431.817 160.345 431.177 160.935C430.547 161.525 429.612 161.82 428.372 161.82C427.732 161.82 427.117 161.735 426.527 161.565C425.937 161.405 425.422 161.175 424.982 160.875L425.507 159.555C426.417 160.105 427.357 160.38 428.327 160.38C429.627 160.38 430.277 159.74 430.277 158.46V157.5C430.057 157.91 429.737 158.23 429.317 158.46C428.897 158.68 428.417 158.79 427.877 158.79C427.237 158.79 426.667 158.64 426.167 158.34C425.677 158.03 425.292 157.6 425.012 157.05C424.732 156.5 424.592 155.865 424.592 155.145C424.592 154.425 424.727 153.79 424.997 153.24C425.277 152.68 425.667 152.25 426.167 151.95C426.667 151.64 427.237 151.485 427.877 151.485C428.417 151.485 428.897 151.6 429.317 151.83C429.737 152.05 430.057 152.365 430.277 152.775V151.665H432.137ZM428.372 157.335C428.972 157.335 429.437 157.14 429.767 156.75C430.107 156.36 430.277 155.825 430.277 155.145C430.277 154.455 430.107 153.915 429.767 153.525C429.437 153.135 428.972 152.94 428.372 152.94C427.782 152.94 427.317 153.135 426.977 153.525C426.637 153.915 426.467 154.455 426.467 155.145C426.467 155.815 426.637 156.35 426.977 156.75C427.317 157.14 427.782 157.335 428.372 157.335ZM434.229 159V148.425H436.104V159H434.229ZM444.623 155.67H439.628C439.688 156.35 439.893 156.855 440.243 157.185C440.593 157.515 441.093 157.68 441.743 157.68C442.553 157.68 443.293 157.42 443.963 156.9L444.503 158.19C444.163 158.47 443.733 158.695 443.213 158.865C442.703 159.035 442.188 159.12 441.668 159.12C440.468 159.12 439.518 158.78 438.818 158.1C438.128 157.42 437.783 156.49 437.783 155.31C437.783 154.56 437.933 153.895 438.233 153.315C438.533 152.735 438.953 152.285 439.493 151.965C440.043 151.645 440.663 151.485 441.353 151.485C442.363 151.485 443.158 151.81 443.738 152.46C444.328 153.11 444.623 154.005 444.623 155.145V155.67ZM441.398 152.805C440.898 152.805 440.493 152.965 440.183 153.285C439.883 153.605 439.698 154.065 439.628 154.665H443.018C442.998 154.055 442.848 153.595 442.568 153.285C442.288 152.965 441.898 152.805 441.398 152.805Z" fill="black"></path><path d="M248.728 114.5L325.465 40.8194L346.024 114.5H248.728Z" fill="#FF4081" fill-opacity="0.3" stroke="black" stroke-width="3"></path><path d="M379.5 114.5L379.5 4.91896L453.184 114.5H379.5Z" fill="#FF4081" fill-opacity="0.3" stroke="black" stroke-width="3"></path><rect x="380" y="99" width="15" height="15" stroke="black" stroke-width="2"></rect></svg> 